<svg xmlns="http://www.w3.org/2000/svg" width="1200" height="780" viewBox="0 0 1200 780" role="img" aria-labelledby="title desc">
  <title id="title">Piclaw RAM reduction progress</title>
  <desc id="desc">Cold-session bootstrap progress and live-service memory history from docs/performance/memory-footprint-history.md.</desc>
  <defs>
    <linearGradient id="bg" x1="0" y1="0" x2="0" y2="1">
      <stop offset="0%" stop-color="#0f172a"/>
      <stop offset="100%" stop-color="#111827"/>
    </linearGradient>
    <linearGradient id="barBlue" x1="0" y1="0" x2="0" y2="1">
      <stop offset="0%" stop-color="#60a5fa"/>
      <stop offset="100%" stop-color="#2563eb"/>
    </linearGradient>
    <linearGradient id="barGreen" x1="0" y1="0" x2="0" y2="1">
      <stop offset="0%" stop-color="#34d399"/>
      <stop offset="100%" stop-color="#059669"/>
    </linearGradient>
    <filter id="shadow" x="-20%" y="-20%" width="140%" height="140%">
      <feDropShadow dx="0" dy="8" stdDeviation="16" flood-color="#000000" flood-opacity="0.35"/>
    </filter>
    <style>
      .h1 { font: 700 28px ui-sans-serif, system-ui, -apple-system, Segoe UI, Roboto, sans-serif; fill: #f8fafc; }
      .h2 { font: 700 18px ui-sans-serif, system-ui, -apple-system, Segoe UI, Roboto, sans-serif; fill: #e5e7eb; }
      .body { font: 13px ui-sans-serif, system-ui, -apple-system, Segoe UI, Roboto, sans-serif; fill: #cbd5e1; }
      .small { font: 12px ui-sans-serif, system-ui, -apple-system, Segoe UI, Roboto, sans-serif; fill: #94a3b8; }
      .axis { font: 12px ui-sans-serif, system-ui, -apple-system, Segoe UI, Roboto, sans-serif; fill: #94a3b8; }
      .value { font: 700 12px ui-sans-serif, system-ui, -apple-system, Segoe UI, Roboto, sans-serif; fill: #f8fafc; }
    </style>
  </defs>

  <rect x="0" y="0" width="1200" height="780" fill="url(#bg)"/>

  <text x="40" y="48" class="h1">Piclaw RAM reduction progress</text>
  <text x="40" y="74" class="body">Generated from docs/performance/memory-footprint-history.md · latest commit d35e1f61dd1ed99662616384307ba7ca475e9ede · 8 cold-session points</text>

  <g filter="url(#shadow)">
    <rect x="40" y="100" width="350" height="110" rx="18" fill="#111827" stroke="#1f2937"/>
    <rect x="425" y="100" width="350" height="110" rx="18" fill="#111827" stroke="#1f2937"/>
    <rect x="810" y="100" width="350" height="110" rx="18" fill="#111827" stroke="#1f2937"/>
  </g>

  <text x="62" y="134" class="small">Real workspace cold-session RSS delta</text>
  <text x="62" y="172" class="h1" fill="#60a5fa">-81.0%</text>
  <text x="62" y="194" class="body">133.3 MB → 25.3 MB</text>

  <text x="447" y="134" class="small">Real workspace cold-session elapsed time</text>
  <text x="447" y="172" class="h1" fill="#34d399">-65.9%</text>
  <text x="447" y="194" class="body">630 ms → 215 ms</text>

  <text x="832" y="134" class="small">Current live service snapshot</text>
  <text x="832" y="172" class="h1" fill="#f8fafc">450.8 MB RSS · 449.7 MB PSS</text>
  <text x="832" y="194" class="body">1 cached main · 1 active chats · 0 prewarm queue</text>

  <g filter="url(#shadow)">
    <rect x="40" y="240" width="550" height="340" rx="22" fill="#111827" stroke="#1f2937"/>
    <rect x="610" y="240" width="550" height="340" rx="22" fill="#111827" stroke="#1f2937"/>
  </g>

  <text x="60" y="274" class="h2">Cold-session RSS delta (MB)</text>
  <text x="630" y="274" class="h2">Cold-session elapsed time (ms)</text>

  <line x1="80" y1="520.0" x2="560" y2="520.0" stroke="#233045" stroke-width="1"/>
<text x="38" y="524.0" class="axis">0</text>
<line x1="80" y1="446.7" x2="560" y2="446.7" stroke="#233045" stroke-width="1"/>
<text x="38" y="450.7" class="axis">50</text>
<line x1="80" y1="373.3" x2="560" y2="373.3" stroke="#233045" stroke-width="1"/>
<text x="38" y="377.3" class="axis">100</text>
<line x1="80" y1="300.0" x2="560" y2="300.0" stroke="#233045" stroke-width="1"/>
<text x="38" y="304.0" class="axis">150</text>
  <line x1="650" y1="520.0" x2="1130" y2="520.0" stroke="#233045" stroke-width="1"/>
<text x="610" y="524.0" class="axis">0</text>
<line x1="650" y1="465.0" x2="1130" y2="465.0" stroke="#233045" stroke-width="1"/>
<text x="610" y="469.0" class="axis">200</text>
<line x1="650" y1="410.0" x2="1130" y2="410.0" stroke="#233045" stroke-width="1"/>
<text x="610" y="414.0" class="axis">400</text>
<line x1="650" y1="355.0" x2="1130" y2="355.0" stroke="#233045" stroke-width="1"/>
<text x="610" y="359.0" class="axis">600</text>
<line x1="650" y1="300.0" x2="1130" y2="300.0" stroke="#233045" stroke-width="1"/>
<text x="610" y="304.0" class="axis">800</text>
  <rect x="95.0" y="397.8" width="38.5" height="122.2" rx="10" fill="url(#barBlue)"/>
<text x="114.3" y="389.8" text-anchor="middle" class="value">83.3</text>
<text x="114.3" y="546" text-anchor="middle" class="small">Empty</text>
<text x="114.3" y="562" text-anchor="middle" class="small">baseline</text>
<rect x="149.5" y="324.5" width="38.5" height="195.5" rx="10" fill="url(#barBlue)"/>
<text x="168.8" y="316.5" text-anchor="middle" class="value">133.3</text>
<text x="168.8" y="546" text-anchor="middle" class="small">Before</text>
<text x="168.8" y="562" text-anchor="middle" class="small">ext rm</text>
<rect x="204.0" y="400.8" width="38.5" height="119.2" rx="10" fill="url(#barBlue)"/>
<text x="223.3" y="392.8" text-anchor="middle" class="value">81.3</text>
<text x="223.3" y="546" text-anchor="middle" class="small">After</text>
<text x="223.3" y="562" text-anchor="middle" class="small">ext rm</text>
<rect x="258.5" y="404.7" width="38.5" height="115.3" rx="10" fill="url(#barBlue)"/>
<text x="277.8" y="396.7" text-anchor="middle" class="value">78.6</text>
<text x="277.8" y="546" text-anchor="middle" class="small">BG</text>
<text x="277.8" y="562" text-anchor="middle" class="small">indexer</text>
<rect x="313.0" y="396.4" width="38.5" height="123.6" rx="10" fill="url(#barBlue)"/>
<text x="332.3" y="388.4" text-anchor="middle" class="value">84.3</text>
<text x="332.3" y="546" text-anchor="middle" class="small">Hook</text>
<text x="332.3" y="562" text-anchor="middle" class="small">trim</text>
<rect x="367.5" y="402.7" width="38.5" height="117.3" rx="10" fill="url(#barBlue)"/>
<text x="386.8" y="394.7" text-anchor="middle" class="value">80</text>
<text x="386.8" y="546" text-anchor="middle" class="small">Gate</text>
<text x="386.8" y="562" text-anchor="middle" class="small">web</text>
<rect x="422.0" y="403.7" width="38.5" height="116.3" rx="10" fill="url(#barBlue)"/>
<text x="441.3" y="395.7" text-anchor="middle" class="value">79.3</text>
<text x="441.3" y="546" text-anchor="middle" class="small">Gate</text>
<text x="441.3" y="562" text-anchor="middle" class="small">non-web</text>
<rect x="476.5" y="482.9" width="38.5" height="37.1" rx="10" fill="url(#barBlue)"/>
<text x="495.8" y="474.9" text-anchor="middle" class="value">25.3</text>
<text x="495.8" y="546" text-anchor="middle" class="small">Lazy</text>
<text x="495.8" y="562" text-anchor="middle" class="small">heavy</text>
  <rect x="665.0" y="418.3" width="38.5" height="101.8" rx="10" fill="url(#barGreen)"/>
<text x="684.3" y="410.3" text-anchor="middle" class="value">370</text>
<text x="684.3" y="546" text-anchor="middle" class="small">Empty</text>
<text x="684.3" y="562" text-anchor="middle" class="small">baseline</text>
<rect x="719.5" y="346.8" width="38.5" height="173.3" rx="10" fill="url(#barGreen)"/>
<text x="738.8" y="338.8" text-anchor="middle" class="value">630</text>
<text x="738.8" y="546" text-anchor="middle" class="small">Before</text>
<text x="738.8" y="562" text-anchor="middle" class="small">ext rm</text>
<rect x="774.0" y="433.6" width="38.5" height="86.4" rx="10" fill="url(#barGreen)"/>
<text x="793.3" y="425.6" text-anchor="middle" class="value">314</text>
<text x="793.3" y="546" text-anchor="middle" class="small">After</text>
<text x="793.3" y="562" text-anchor="middle" class="small">ext rm</text>
<rect x="828.5" y="432.8" width="38.5" height="87.2" rx="10" fill="url(#barGreen)"/>
<text x="847.8" y="424.8" text-anchor="middle" class="value">317</text>
<text x="847.8" y="546" text-anchor="middle" class="small">BG</text>
<text x="847.8" y="562" text-anchor="middle" class="small">indexer</text>
<rect x="883.0" y="438.9" width="38.5" height="81.1" rx="10" fill="url(#barGreen)"/>
<text x="902.3" y="430.9" text-anchor="middle" class="value">295</text>
<text x="902.3" y="546" text-anchor="middle" class="small">Hook</text>
<text x="902.3" y="562" text-anchor="middle" class="small">trim</text>
<rect x="937.5" y="438.6" width="38.5" height="81.4" rx="10" fill="url(#barGreen)"/>
<text x="956.8" y="430.6" text-anchor="middle" class="value">296</text>
<text x="956.8" y="546" text-anchor="middle" class="small">Gate</text>
<text x="956.8" y="562" text-anchor="middle" class="small">web</text>
<rect x="992.0" y="443.8" width="38.5" height="76.2" rx="10" fill="url(#barGreen)"/>
<text x="1011.3" y="435.8" text-anchor="middle" class="value">277</text>
<text x="1011.3" y="546" text-anchor="middle" class="small">Gate</text>
<text x="1011.3" y="562" text-anchor="middle" class="small">non-web</text>
<rect x="1046.5" y="460.9" width="38.5" height="59.1" rx="10" fill="url(#barGreen)"/>
<text x="1065.8" y="452.9" text-anchor="middle" class="value">215</text>
<text x="1065.8" y="546" text-anchor="middle" class="small">Lazy</text>
<text x="1065.8" y="562" text-anchor="middle" class="small">heavy</text>

  <g filter="url(#shadow)">
    <rect x="40" y="620" width="1120" height="130" rx="22" fill="#111827" stroke="#1f2937"/>
  </g>
  <text x="60" y="652" class="h2">Generated summary</text>
  <text x="60" y="678" class="body">• Cold-session RSS delta: 133.3 MB → 25.3 MB (-81.0%).</text>
  <text x="60" y="700" class="body">• Cold-session elapsed: 630 ms → 215 ms (-65.9%).</text>
  <text x="60" y="722" class="body">• Latest live snapshot: 450.8 MB RSS / 449.7 MB PSS.</text>
  <text x="60" y="744" class="body">• Latest milestone: Real web-chat cold-session benchmark after lazy-loading heavy Office/CDP modules.</text>
</svg>